<?xml version='1.0' encoding='ASCII' standalone='yes'?>
<svg xmlns:xlink="http://www.w3.org/1999/xlink" xmlns="http://www.w3.org/2000/svg" version="1.1" width="10.5cm" viewBox="0 0 10.5cm 13.200000000000001cm" height="13.200000000000001cm">
  <g>
    <g><defs>
  <style type="text/css">
*{stroke-linecap:butt;stroke-linejoin:round;}
  </style>
 </defs>
 <g id="figure_1">
  <g id="patch_1">
   <path d="M 0 374.173228  L 297.637795 374.173228  L 297.637795 0  L 0 0  z " style="fill:#ffffff;"/>
  </g>
  <g id="axes_1">
   <g id="patch_2">
    <path d="M 37.204724 327.401575  L 267.874016 327.401575  L 267.874016 44.900787  L 37.204724 44.900787  z " style="fill:#ffffff;"/>
   </g>
   <g id="matplotlib.axis_1">
    <g id="xtick_1">
     <g id="line2d_1"/>
     <g id="text_1">
      <text style="fill:#262626;font-family:Arial;font-size:16px;font-style:normal;font-weight:400;text-anchor:middle;" transform="rotate(-0, 66.038386, 344.454075)" x="66.038386" y="344.454075">Thur</text>
     </g>
    </g>
    <g id="xtick_2">
     <g id="line2d_2"/>
     <g id="text_2">
      <text style="fill:#262626;font-family:Arial;font-size:16px;font-style:normal;font-weight:400;text-anchor:middle;" transform="rotate(-0, 123.705709, 344.454075)" x="123.705709" y="344.454075">Fri</text>
     </g>
    </g>
    <g id="xtick_3">
     <g id="line2d_3"/>
     <g id="text_3">
      <text style="fill:#262626;font-family:Arial;font-size:16px;font-style:normal;font-weight:400;text-anchor:middle;" transform="rotate(-0, 181.373031, 344.454075)" x="181.373031" y="344.454075">Sat</text>
     </g>
    </g>
    <g id="xtick_4">
     <g id="line2d_4"/>
     <g id="text_4">
      <text style="fill:#262626;font-family:Arial;font-size:16px;font-style:normal;font-weight:400;text-anchor:middle;" transform="rotate(-0, 239.040354, 344.454075)" x="239.040354" y="344.454075">Sun</text>
     </g>
    </g>
    <g id="text_5">
     <text style="fill:#262626;font-family:Arial;font-size:17.6px;font-style:normal;font-weight:400;text-anchor:middle;" transform="rotate(-0, 152.53937, 364.231825)" x="152.53937" y="364.231825">day</text>
    </g>
   </g>
   <g id="matplotlib.axis_2">
    <g id="ytick_1">
     <g id="line2d_5"/>
     <g id="text_6">
      <text style="fill:#262626;font-family:Arial;font-size:16px;font-style:normal;font-weight:400;text-anchor:end;" transform="rotate(-0, 31.604724, 296.855994)" x="31.604724" y="296.855994">0</text>
     </g>
    </g>
    <g id="ytick_2">
     <g id="line2d_6"/>
     <g id="text_7">
      <text style="fill:#262626;font-family:Arial;font-size:16px;font-style:normal;font-weight:400;text-anchor:end;" transform="rotate(-0, 31.604724, 257.639986)" x="31.604724" y="257.639986">10</text>
     </g>
    </g>
    <g id="ytick_3">
     <g id="line2d_7"/>
     <g id="text_8">
      <text style="fill:#262626;font-family:Arial;font-size:16px;font-style:normal;font-weight:400;text-anchor:end;" transform="rotate(-0, 31.604724, 218.423977)" x="31.604724" y="218.423977">20</text>
     </g>
    </g>
    <g id="ytick_4">
     <g id="line2d_8"/>
     <g id="text_9">
      <text style="fill:#262626;font-family:Arial;font-size:16px;font-style:normal;font-weight:400;text-anchor:end;" transform="rotate(-0, 31.604724, 179.207968)" x="31.604724" y="179.207968">30</text>
     </g>
    </g>
    <g id="ytick_5">
     <g id="line2d_9"/>
     <g id="text_10">
      <text style="fill:#262626;font-family:Arial;font-size:16px;font-style:normal;font-weight:400;text-anchor:end;" transform="rotate(-0, 31.604724, 139.991959)" x="31.604724" y="139.991959">40</text>
     </g>
    </g>
    <g id="ytick_6">
     <g id="line2d_10"/>
     <g id="text_11">
      <text style="fill:#262626;font-family:Arial;font-size:16px;font-style:normal;font-weight:400;text-anchor:end;" transform="rotate(-0, 31.604724, 100.775951)" x="31.604724" y="100.775951">50</text>
     </g>
    </g>
    <g id="ytick_7">
     <g id="line2d_11"/>
     <g id="text_12">
      <text style="fill:#262626;font-family:Arial;font-size:16px;font-style:normal;font-weight:400;text-anchor:end;" transform="rotate(-0, 31.604724, 61.559942)" x="31.604724" y="61.559942">60</text>
     </g>
    </g>
    <g id="text_13">
     <text style="fill:#262626;font-family:Arial;font-size:17.6px;font-style:normal;font-weight:400;text-anchor:middle;" transform="rotate(-90, 6.311724, 186.151181)" x="6.311724" y="186.151181">total_bill</text>
    </g>
   </g>
   <g id="PolyCollection_1">
    <defs>
     <path d="M 66.038386 -80.635955  L 65.534248 -80.635955  L 65.380652 -82.613702  L 65.191879 -84.59145  L 64.96348 -86.569198  L 64.691417 -88.546945  L 64.372319 -90.524693  L 64.003743 -92.502441  L 63.584398 -94.480189  L 63.114313 -96.457936  L 62.594916 -98.435684  L 62.029016 -100.413432  L 61.420675 -102.391179  L 60.774978 -104.368927  L 60.097712 -106.346675  L 59.394998 -108.324422  L 58.6729 -110.30217  L 57.937083 -112.279918  L 57.192538 -114.257665  L 56.443437 -116.235413  L 55.693138 -118.213161  L 54.944335 -120.190909  L 54.199365 -122.168656  L 53.460619 -124.146404  L 52.731004 -126.124152  L 52.014416 -128.101899  L 51.316128 -130.079647  L 50.64305 -132.057395  L 50.003806 -134.035142  L 49.4086 -136.01289  L 48.868867 -137.990638  L 48.396733 -139.968385  L 48.004327 -141.946133  L 47.703013 -143.923881  L 47.502607 -145.901628  L 47.410668 -147.879376  L 47.431915 -149.857124  L 47.567838 -151.834872  L 47.816517 -153.812619  L 48.172681 -155.790367  L 48.627967 -157.768115  L 49.17138 -159.745862  L 49.789869 -161.72361  L 50.469002 -163.701358  L 51.193656 -165.679105  L 51.948688 -167.656853  L 52.719533 -169.634601  L 53.492708 -171.612348  L 54.256185 -173.590096  L 54.999651 -175.567844  L 55.714639 -177.545591  L 56.394545 -179.523339  L 57.034571 -181.501087  L 57.631583 -183.478835  L 58.183939 -185.456582  L 58.69129 -187.43433  L 59.154386 -189.412078  L 59.574882 -191.389825  L 59.955172 -193.367573  L 60.298245 -195.345321  L 60.607546 -197.323068  L 60.886857 -199.300816  L 61.140178 -201.278564  L 61.371587 -203.256311  L 61.585108 -205.234059  L 61.784551 -207.211807  L 61.973357 -209.189555  L 62.154447 -211.167302  L 62.330102 -213.14505  L 62.501875 -215.122798  L 62.670569 -217.100545  L 62.836277 -219.078293  L 62.998491 -221.056041  L 63.156269 -223.033788  L 63.308444 -225.011536  L 63.453853 -226.989284  L 63.591554 -228.967031  L 63.721008 -230.944779  L 63.842196 -232.922527  L 63.955669 -234.900274  L 64.06251 -236.878022  L 64.164224 -238.85577  L 64.262579 -240.833518  L 64.359402 -242.811265  L 64.456375 -244.789013  L 64.554849 -246.766761  L 64.655702 -248.744508  L 64.759255 -250.722256  L 64.865249 -252.700004  L 64.972897 -254.677751  L 65.080971 -256.655499  L 65.187948 -258.633247  L 65.292158 -260.610994  L 65.391939 -262.588742  L 65.485783 -264.56649  L 65.572435 -266.544237  L 65.650977 -268.521985  L 65.720855 -270.499733  L 65.78188 -272.477481  L 65.834201 -274.455228  L 65.878243 -276.432976  L 66.038386 -276.432976  L 66.038386 -276.432976  L 66.038386 -274.455228  L 66.038386 -272.477481  L 66.038386 -270.499733  L 66.038386 -268.521985  L 66.038386 -266.544237  L 66.038386 -264.56649  L 66.038386 -262.588742  L 66.038386 -260.610994  L 66.038386 -258.633247  L 66.038386 -256.655499  L 66.038386 -254.677751  L 66.038386 -252.700004  L 66.038386 -250.722256  L 66.038386 -248.744508  L 66.038386 -246.766761  L 66.038386 -244.789013  L 66.038386 -242.811265  L 66.038386 -240.833518  L 66.038386 -238.85577  L 66.038386 -236.878022  L 66.038386 -234.900274  L 66.038386 -232.922527  L 66.038386 -230.944779  L 66.038386 -228.967031  L 66.038386 -226.989284  L 66.038386 -225.011536  L 66.038386 -223.033788  L 66.038386 -221.056041  L 66.038386 -219.078293  L 66.038386 -217.100545  L 66.038386 -215.122798  L 66.038386 -213.14505  L 66.038386 -211.167302  L 66.038386 -209.189555  L 66.038386 -207.211807  L 66.038386 -205.234059  L 66.038386 -203.256311  L 66.038386 -201.278564  L 66.038386 -199.300816  L 66.038386 -197.323068  L 66.038386 -195.345321  L 66.038386 -193.367573  L 66.038386 -191.389825  L 66.038386 -189.412078  L 66.038386 -187.43433  L 66.038386 -185.456582  L 66.038386 -183.478835  L 66.038386 -181.501087  L 66.038386 -179.523339  L 66.038386 -177.545591  L 66.038386 -175.567844  L 66.038386 -173.590096  L 66.038386 -171.612348  L 66.038386 -169.634601  L 66.038386 -167.656853  L 66.038386 -165.679105  L 66.038386 -163.701358  L 66.038386 -161.72361  L 66.038386 -159.745862  L 66.038386 -157.768115  L 66.038386 -155.790367  L 66.038386 -153.812619  L 66.038386 -151.834872  L 66.038386 -149.857124  L 66.038386 -147.879376  L 66.038386 -145.901628  L 66.038386 -143.923881  L 66.038386 -141.946133  L 66.038386 -139.968385  L 66.038386 -137.990638  L 66.038386 -136.01289  L 66.038386 -134.035142  L 66.038386 -132.057395  L 66.038386 -130.079647  L 66.038386 -128.101899  L 66.038386 -126.124152  L 66.038386 -124.146404  L 66.038386 -122.168656  L 66.038386 -120.190909  L 66.038386 -118.213161  L 66.038386 -116.235413  L 66.038386 -114.257665  L 66.038386 -112.279918  L 66.038386 -110.30217  L 66.038386 -108.324422  L 66.038386 -106.346675  L 66.038386 -104.368927  L 66.038386 -102.391179  L 66.038386 -100.413432  L 66.038386 -98.435684  L 66.038386 -96.457936  L 66.038386 -94.480189  L 66.038386 -92.502441  L 66.038386 -90.524693  L 66.038386 -88.546945  L 66.038386 -86.569198  L 66.038386 -84.59145  L 66.038386 -82.613702  L 66.038386 -80.635955  z " id="m05b52d60f2" style="stroke:#393939;stroke-width:1.4;"/>
    </defs>
    <g clip-path="url(#p03235fbdcd)">
     <use style="fill:#2020df;stroke:#393939;stroke-width:1.4;" x="0" xlink:href="#m05b52d60f2" y="374.173228"/>
    </g>
   </g>
   <g id="PolyCollection_2">
    <defs>
     <path d="M 66.625965 -85.358153  L 66.038386 -85.358153  L 66.038386 -87.349832  L 66.038386 -89.341511  L 66.038386 -91.333191  L 66.038386 -93.32487  L 66.038386 -95.316549  L 66.038386 -97.308228  L 66.038386 -99.299908  L 66.038386 -101.291587  L 66.038386 -103.283266  L 66.038386 -105.274945  L 66.038386 -107.266624  L 66.038386 -109.258304  L 66.038386 -111.249983  L 66.038386 -113.241662  L 66.038386 -115.233341  L 66.038386 -117.225021  L 66.038386 -119.2167  L 66.038386 -121.208379  L 66.038386 -123.200058  L 66.038386 -125.191737  L 66.038386 -127.183417  L 66.038386 -129.175096  L 66.038386 -131.166775  L 66.038386 -133.158454  L 66.038386 -135.150134  L 66.038386 -137.141813  L 66.038386 -139.133492  L 66.038386 -141.125171  L 66.038386 -143.11685  L 66.038386 -145.10853  L 66.038386 -147.100209  L 66.038386 -149.091888  L 66.038386 -151.083567  L 66.038386 -153.075247  L 66.038386 -155.066926  L 66.038386 -157.058605  L 66.038386 -159.050284  L 66.038386 -161.041963  L 66.038386 -163.033643  L 66.038386 -165.025322  L 66.038386 -167.017001  L 66.038386 -169.00868  L 66.038386 -171.00036  L 66.038386 -172.992039  L 66.038386 -174.983718  L 66.038386 -176.975397  L 66.038386 -178.967076  L 66.038386 -180.958756  L 66.038386 -182.950435  L 66.038386 -184.942114  L 66.038386 -186.933793  L 66.038386 -188.925473  L 66.038386 -190.917152  L 66.038386 -192.908831  L 66.038386 -194.90051  L 66.038386 -196.892189  L 66.038386 -198.883869  L 66.038386 -200.875548  L 66.038386 -202.867227  L 66.038386 -204.858906  L 66.038386 -206.850586  L 66.038386 -208.842265  L 66.038386 -210.833944  L 66.038386 -212.825623  L 66.038386 -214.817302  L 66.038386 -216.808982  L 66.038386 -218.800661  L 66.038386 -220.79234  L 66.038386 -222.784019  L 66.038386 -224.775699  L 66.038386 -226.767378  L 66.038386 -228.759057  L 66.038386 -230.750736  L 66.038386 -232.742415  L 66.038386 -234.734095  L 66.038386 -236.725774  L 66.038386 -238.717453  L 66.038386 -240.709132  L 66.038386 -242.700812  L 66.038386 -244.692491  L 66.038386 -246.68417  L 66.038386 -248.675849  L 66.038386 -250.667528  L 66.038386 -252.659208  L 66.038386 -254.650887  L 66.038386 -256.642566  L 66.038386 -258.634245  L 66.038386 -260.625925  L 66.038386 -262.617604  L 66.038386 -264.609283  L 66.038386 -266.600962  L 66.038386 -268.592642  L 66.038386 -270.584321  L 66.038386 -272.576  L 66.038386 -274.567679  L 66.038386 -276.559358  L 66.038386 -278.551038  L 66.038386 -280.542717  L 66.038386 -282.534396  L 66.194282 -282.534396  L 66.194282 -282.534396  L 66.239302 -280.542717  L 66.292961 -278.551038  L 66.355535 -276.559358  L 66.426877 -274.567679  L 66.506346 -272.576  L 66.592747 -270.584321  L 66.684333 -268.592642  L 66.778852 -266.600962  L 66.873656 -264.609283  L 66.965871 -262.617604  L 67.052605 -260.625925  L 67.1312 -258.634245  L 67.199471 -256.642566  L 67.255934 -254.650887  L 67.299979 -252.659208  L 67.331961 -250.667528  L 67.353203 -248.675849  L 67.365905 -246.68417  L 67.372955 -244.692491  L 67.377676 -242.700812  L 67.383529 -240.709132  L 67.393812 -238.717453  L 67.411384 -236.725774  L 67.438461 -234.734095  L 67.476479 -232.742415  L 67.526069 -230.750736  L 67.58711 -228.759057  L 67.658863 -226.767378  L 67.740153 -224.775699  L 67.829571 -222.784019  L 67.925668 -220.79234  L 68.027108 -218.800661  L 68.132773 -216.808982  L 68.241811 -214.817302  L 68.353636 -212.825623  L 68.467891 -210.833944  L 68.584412 -208.842265  L 68.703194 -206.850586  L 68.824406 -204.858906  L 68.948453 -202.867227  L 69.076089 -200.875548  L 69.208577 -198.883869  L 69.34788 -196.892189  L 69.496842 -194.90051  L 69.659341 -192.908831  L 69.840367 -190.917152  L 70.046008 -188.925473  L 70.283317 -186.933793  L 70.560052 -184.942114  L 70.884307 -182.950435  L 71.264046 -180.958756  L 71.706585 -178.967076  L 72.218061 -176.975397  L 72.802958 -174.983718  L 73.46371 -172.992039  L 74.200447 -171.00036  L 75.010888 -169.00868  L 75.890385 -167.017001  L 76.832096 -165.025322  L 77.827233 -163.033643  L 78.865347 -161.041963  L 79.934561 -159.050284  L 81.021735 -157.058605  L 82.112503 -155.066926  L 83.191214 -153.075247  L 84.240792 -151.083567  L 85.242599 -149.091888  L 86.176386 -147.100209  L 87.02042 -145.10853  L 87.751886 -143.11685  L 88.347583 -141.125171  L 88.78494 -139.133492  L 89.043295 -137.141813  L 89.105315 -135.150134  L 88.958443 -133.158454  L 88.596182 -131.166775  L 88.019076 -129.175096  L 87.235244 -127.183417  L 86.260382 -125.191737  L 85.117214 -123.200058  L 83.834419 -121.208379  L 82.445127 -119.2167  L 80.985139 -117.225021  L 79.491012 -115.233341  L 77.998182 -113.241662  L 76.539291 -111.249983  L 75.142816 -109.258304  L 73.832092 -107.266624  L 72.624763 -105.274945  L 71.532642 -103.283266  L 70.56195 -101.291587  L 69.713853 -99.299908  L 68.985208 -97.308228  L 68.36945 -95.316549  L 67.857504 -93.32487  L 67.438686 -91.333191  L 67.101499 -89.341511  L 66.834326 -87.349832  L 66.625965 -85.358153  z " id="mf6a29a0662" style="stroke:#393939;stroke-width:1.4;"/>
    </defs>
    <g clip-path="url(#p03235fbdcd)">
     <use style="fill:#a7a718;stroke:#393939;stroke-width:1.4;" x="0" xlink:href="#mf6a29a0662" y="374.173228"/>
    </g>
   </g>
   <g id="PolyCollection_3">
    <defs>
     <path d="M 123.705709 -67.125137  L 123.213253 -67.125137  L 123.100931 -69.377811  L 122.968482 -71.630485  L 122.813662 -73.88316  L 122.634288 -76.135834  L 122.428319 -78.388508  L 122.19395 -80.641182  L 121.929707 -82.893856  L 121.634556 -85.14653  L 121.308 -87.399204  L 120.950185 -89.651878  L 120.561982 -91.904552  L 120.145057 -94.157226  L 119.70192 -96.409901  L 119.235945 -98.662575  L 118.751348 -100.915249  L 118.253142 -103.167923  L 117.747047 -105.420597  L 117.239357 -107.673271  L 116.736783 -109.925945  L 116.246262 -112.178619  L 115.774735 -114.431293  L 115.328929 -116.683968  L 114.91512 -118.936642  L 114.538917 -121.189316  L 114.205057 -123.44199  L 113.917243 -125.694664  L 113.67801 -127.947338  L 113.488658 -130.200012  L 113.34922 -132.452686  L 113.258501 -134.70536  L 113.214164 -136.958034  L 113.212872 -139.210709  L 113.250461 -141.463383  L 113.32216 -143.716057  L 113.422818 -145.968731  L 113.547148 -148.221405  L 113.689956 -150.474079  L 113.846359 -152.726753  L 114.01197 -154.979427  L 114.18305 -157.232101  L 114.356605 -159.484775  L 114.53045 -161.73745  L 114.703215 -163.990124  L 114.874312 -166.242798  L 115.043856 -168.495472  L 115.212556 -170.748146  L 115.381585 -173.00082  L 115.552424 -175.253494  L 115.726705 -177.506168  L 115.90606 -179.758842  L 116.091974 -182.011517  L 116.285657 -184.264191  L 116.487949 -186.516865  L 116.699241 -188.769539  L 116.919436 -191.022213  L 117.147939 -193.274887  L 117.383676 -195.527561  L 117.625147 -197.780235  L 117.8705 -200.032909  L 118.11762 -202.285583  L 118.364245 -204.538258  L 118.608072 -206.790932  L 118.846877 -209.043606  L 119.078623 -211.29628  L 119.301553 -213.548954  L 119.514272 -215.801628  L 119.715799 -218.054302  L 119.905603 -220.306976  L 120.083606 -222.55965  L 120.250166 -224.812324  L 120.406031 -227.064999  L 120.55228 -229.317673  L 120.690245 -231.570347  L 120.821417 -233.823021  L 120.94736 -236.075695  L 121.069616 -238.328369  L 121.18962 -240.581043  L 121.308624 -242.833717  L 121.427645 -245.086391  L 121.547414 -247.339066  L 121.668365 -249.59174  L 121.790623 -251.844414  L 121.914021 -254.097088  L 122.038132 -256.349762  L 122.16231 -258.602436  L 122.285739 -260.85511  L 122.407492 -263.107784  L 122.526585 -265.360458  L 122.642037 -267.613132  L 122.752913 -269.865807  L 122.858373 -272.118481  L 122.957699 -274.371155  L 123.050325 -276.623829  L 123.135843 -278.876503  L 123.214016 -281.129177  L 123.284765 -283.381851  L 123.348162 -285.634525  L 123.404412 -287.887199  L 123.453832 -290.139873  L 123.705709 -290.139873  L 123.705709 -290.139873  L 123.705709 -287.887199  L 123.705709 -285.634525  L 123.705709 -283.381851  L 123.705709 -281.129177  L 123.705709 -278.876503  L 123.705709 -276.623829  L 123.705709 -274.371155  L 123.705709 -272.118481  L 123.705709 -269.865807  L 123.705709 -267.613132  L 123.705709 -265.360458  L 123.705709 -263.107784  L 123.705709 -260.85511  L 123.705709 -258.602436  L 123.705709 -256.349762  L 123.705709 -254.097088  L 123.705709 -251.844414  L 123.705709 -249.59174  L 123.705709 -247.339066  L 123.705709 -245.086391  L 123.705709 -242.833717  L 123.705709 -240.581043  L 123.705709 -238.328369  L 123.705709 -236.075695  L 123.705709 -233.823021  L 123.705709 -231.570347  L 123.705709 -229.317673  L 123.705709 -227.064999  L 123.705709 -224.812324  L 123.705709 -222.55965  L 123.705709 -220.306976  L 123.705709 -218.054302  L 123.705709 -215.801628  L 123.705709 -213.548954  L 123.705709 -211.29628  L 123.705709 -209.043606  L 123.705709 -206.790932  L 123.705709 -204.538258  L 123.705709 -202.285583  L 123.705709 -200.032909  L 123.705709 -197.780235  L 123.705709 -195.527561  L 123.705709 -193.274887  L 123.705709 -191.022213  L 123.705709 -188.769539  L 123.705709 -186.516865  L 123.705709 -184.264191  L 123.705709 -182.011517  L 123.705709 -179.758842  L 123.705709 -177.506168  L 123.705709 -175.253494  L 123.705709 -173.00082  L 123.705709 -170.748146  L 123.705709 -168.495472  L 123.705709 -166.242798  L 123.705709 -163.990124  L 123.705709 -161.73745  L 123.705709 -159.484775  L 123.705709 -157.232101  L 123.705709 -154.979427  L 123.705709 -152.726753  L 123.705709 -150.474079  L 123.705709 -148.221405  L 123.705709 -145.968731  L 123.705709 -143.716057  L 123.705709 -141.463383  L 123.705709 -139.210709  L 123.705709 -136.958034  L 123.705709 -134.70536  L 123.705709 -132.452686  L 123.705709 -130.200012  L 123.705709 -127.947338  L 123.705709 -125.694664  L 123.705709 -123.44199  L 123.705709 -121.189316  L 123.705709 -118.936642  L 123.705709 -116.683968  L 123.705709 -114.431293  L 123.705709 -112.178619  L 123.705709 -109.925945  L 123.705709 -107.673271  L 123.705709 -105.420597  L 123.705709 -103.167923  L 123.705709 -100.915249  L 123.705709 -98.662575  L 123.705709 -96.409901  L 123.705709 -94.157226  L 123.705709 -91.904552  L 123.705709 -89.651878  L 123.705709 -87.399204  L 123.705709 -85.14653  L 123.705709 -82.893856  L 123.705709 -80.641182  L 123.705709 -78.388508  L 123.705709 -76.135834  L 123.705709 -73.88316  L 123.705709 -71.630485  L 123.705709 -69.377811  L 123.705709 -67.125137  z " id="m00ce57aa44" style="stroke:#393939;stroke-width:1.4;"/>
    </defs>
    <g clip-path="url(#p03235fbdcd)">
     <use style="fill:#2020df;stroke:#393939;stroke-width:1.4;" x="0" xlink:href="#m00ce57aa44" y="374.173228"/>
    </g>
   </g>
   <g id="PolyCollection_4">
    <defs>
     <path d="M 124.289991 -81.390837  L 123.705709 -81.390837  L 123.705709 -82.55317  L 123.705709 -83.715502  L 123.705709 -84.877835  L 123.705709 -86.040167  L 123.705709 -87.2025  L 123.705709 -88.364833  L 123.705709 -89.527165  L 123.705709 -90.689498  L 123.705709 -91.85183  L 123.705709 -93.014163  L 123.705709 -94.176495  L 123.705709 -95.338828  L 123.705709 -96.50116  L 123.705709 -97.663493  L 123.705709 -98.825825  L 123.705709 -99.988158  L 123.705709 -101.15049  L 123.705709 -102.312823  L 123.705709 -103.475155  L 123.705709 -104.637488  L 123.705709 -105.79982  L 123.705709 -106.962153  L 123.705709 -108.124485  L 123.705709 -109.286818  L 123.705709 -110.44915  L 123.705709 -111.611483  L 123.705709 -112.773815  L 123.705709 -113.936148  L 123.705709 -115.09848  L 123.705709 -116.260813  L 123.705709 -117.423145  L 123.705709 -118.585478  L 123.705709 -119.74781  L 123.705709 -120.910143  L 123.705709 -122.072475  L 123.705709 -123.234808  L 123.705709 -124.39714  L 123.705709 -125.559473  L 123.705709 -126.721805  L 123.705709 -127.884138  L 123.705709 -129.04647  L 123.705709 -130.208803  L 123.705709 -131.371135  L 123.705709 -132.533468  L 123.705709 -133.6958  L 123.705709 -134.858133  L 123.705709 -136.020465  L 123.705709 -137.182798  L 123.705709 -138.34513  L 123.705709 -139.507463  L 123.705709 -140.669795  L 123.705709 -141.832128  L 123.705709 -142.99446  L 123.705709 -144.156793  L 123.705709 -145.319125  L 123.705709 -146.481458  L 123.705709 -147.64379  L 123.705709 -148.806123  L 123.705709 -149.968455  L 123.705709 -151.130788  L 123.705709 -152.29312  L 123.705709 -153.455453  L 123.705709 -154.617785  L 123.705709 -155.780118  L 123.705709 -156.94245  L 123.705709 -158.104783  L 123.705709 -159.267115  L 123.705709 -160.429448  L 123.705709 -161.59178  L 123.705709 -162.754113  L 123.705709 -163.916445  L 123.705709 -165.078778  L 123.705709 -166.24111  L 123.705709 -167.403443  L 123.705709 -168.565775  L 123.705709 -169.728108  L 123.705709 -170.89044  L 123.705709 -172.052773  L 123.705709 -173.215105  L 123.705709 -174.377438  L 123.705709 -175.539771  L 123.705709 -176.702103  L 123.705709 -177.864436  L 123.705709 -179.026768  L 123.705709 -180.189101  L 123.705709 -181.351433  L 123.705709 -182.513766  L 123.705709 -183.676098  L 123.705709 -184.838431  L 123.705709 -186.000763  L 123.705709 -187.163096  L 123.705709 -188.325428  L 123.705709 -189.487761  L 123.705709 -190.650093  L 123.705709 -191.812426  L 123.705709 -192.974758  L 123.705709 -194.137091  L 123.705709 -195.299423  L 123.705709 -196.461756  L 124.277071 -196.461756  L 124.277071 -196.461756  L 124.395692 -195.299423  L 124.531505 -194.137091  L 124.685291 -192.974758  L 124.857499 -191.812426  L 125.048196 -190.650093  L 125.257016 -189.487761  L 125.483149 -188.325428  L 125.725337 -187.163096  L 125.981921 -186.000763  L 126.250906 -184.838431  L 126.530076 -183.676098  L 126.817138 -182.513766  L 127.109893 -181.351433  L 127.406434 -180.189101  L 127.705354 -179.026768  L 128.005951 -177.864436  L 128.30842 -176.702103  L 128.613998 -175.539771  L 128.925074 -174.377438  L 129.245221 -173.215105  L 129.579157 -172.052773  L 129.932613 -170.89044  L 130.312116 -169.728108  L 130.72469 -168.565775  L 131.177473 -167.403443  L 131.677283 -166.24111  L 132.230144 -165.078778  L 132.840806 -163.916445  L 133.512282 -162.754113  L 134.245444 -161.59178  L 135.038697 -160.429448  L 135.88777 -159.267115  L 136.785636 -158.104783  L 137.722572 -156.94245  L 138.686375 -155.780118  L 139.66272 -154.617785  L 140.635643 -153.455453  L 141.588127 -152.29312  L 142.502764 -151.130788  L 143.362437 -149.968455  L 144.151003 -148.806123  L 144.85393 -147.64379  L 145.458833 -146.481458  L 145.955914 -145.319125  L 146.33825 -144.156793  L 146.601936 -142.99446  L 146.746077 -141.832128  L 146.772638 -140.669795  L 146.686171 -139.507463  L 146.493444 -138.34513  L 146.203003 -137.182798  L 145.8247 -136.020465  L 145.369221 -134.858133  L 144.847636 -133.6958  L 144.271007 -132.533468  L 143.650054 -131.371135  L 142.994902 -130.208803  L 142.314902 -129.04647  L 141.618524 -127.884138  L 140.913311 -126.721805  L 140.205881 -125.559473  L 139.501957 -124.39714  L 138.806421 -123.234808  L 138.123366 -122.072475  L 137.45615 -120.910143  L 136.807433 -119.74781  L 136.179211 -118.585478  L 135.572837 -117.423145  L 134.989041 -116.260813  L 134.427952 -115.09848  L 133.889134 -113.936148  L 133.371636 -112.773815  L 132.874061 -111.611483  L 132.394663 -110.44915  L 131.931456 -109.286818  L 131.482345 -108.124485  L 131.04526 -106.962153  L 130.618293 -105.79982  L 130.19982 -104.637488  L 129.788605 -103.475155  L 129.383883 -102.312823  L 128.985397 -101.15049  L 128.593412 -99.988158  L 128.208683 -98.825825  L 127.8324 -97.663493  L 127.466099 -96.50116  L 127.111555 -95.338828  L 126.770662 -94.176495  L 126.445319 -93.014163  L 126.137308 -91.85183  L 125.848199 -90.689498  L 125.579264 -89.527165  L 125.331422 -88.364833  L 125.1052 -87.2025  L 124.900725 -86.040167  L 124.717737 -84.877835  L 124.555616 -83.715502  L 124.41343 -82.55317  L 124.289991 -81.390837  z " id="mcd78bda699" style="stroke:#393939;stroke-width:1.4;"/>
    </defs>
    <g clip-path="url(#p03235fbdcd)">
     <use style="fill:#a7a718;stroke:#393939;stroke-width:1.4;" x="0" xlink:href="#mcd78bda699" y="374.173228"/>
    </g>
   </g>
   <g id="PolyCollection_5">
    <defs>
     <path d="M 181.373031 -79.265203  L 181.07545 -79.265203  L 180.954051 -81.660822  L 180.792493 -84.056441  L 180.581307 -86.452061  L 180.310157 -88.84768  L 179.968218 -91.243299  L 179.544702 -93.638918  L 179.029521 -96.034537  L 178.414047 -98.430156  L 177.691922 -100.825775  L 176.859833 -103.221394  L 175.918192 -105.617014  L 174.871608 -108.012633  L 173.72911 -110.408252  L 172.504058 -112.803871  L 171.213736 -115.19949  L 169.878664 -117.595109  L 168.521687 -119.990728  L 167.166953 -122.386347  L 165.838875 -124.781966  L 164.56121 -127.177586  L 163.356304 -129.573205  L 162.244583 -131.968824  L 161.24426 -134.364443  L 160.371225 -136.760062  L 159.639039 -139.155681  L 159.058931 -141.5513  L 158.63973 -143.946919  L 158.387677 -146.342539  L 158.306102 -148.738158  L 158.395025 -151.133777  L 158.650748 -153.529396  L 159.065552 -155.925015  L 159.627597 -158.320634  L 160.321114 -160.716253  L 161.12692 -163.111872  L 162.023243 -165.507492  L 162.986798 -167.903111  L 163.994 -170.29873  L 165.022191 -172.694349  L 166.050737 -175.089968  L 167.061909 -177.485587  L 168.041449 -179.881206  L 168.978789 -182.276825  L 169.866958 -184.672444  L 170.702195 -187.068064  L 171.483354 -189.463683  L 172.211207 -191.859302  L 172.887703 -194.254921  L 173.515303 -196.65054  L 174.096429 -199.046159  L 174.633097 -201.441778  L 175.126739 -203.837397  L 175.578232 -206.233017  L 175.988087 -208.628636  L 176.356769 -211.024255  L 176.685074 -213.419874  L 176.974486 -215.815493  L 177.227455 -218.211112  L 177.447519 -220.606731  L 177.639246 -223.00235  L 177.807972 -225.39797  L 177.959373 -227.793589  L 178.09892 -230.189208  L 178.231301 -232.584827  L 178.359899 -234.980446  L 178.486426 -237.376065  L 178.610762 -239.771684  L 178.73106 -242.167303  L 178.844098 -244.562922  L 178.945845 -246.958542  L 179.032164 -249.354161  L 179.099551 -251.74978  L 179.145808 -254.145399  L 179.170553 -256.541018  L 179.175496 -258.936637  L 179.16444 -261.332256  L 179.143005 -263.727875  L 179.118125 -266.123495  L 179.097368 -268.519114  L 179.088184 -270.914733  L 179.097173 -273.310352  L 179.129451 -275.705971  L 179.188203 -278.10159  L 179.274452 -280.497209  L 179.387063 -282.892828  L 179.522959 -285.288448  L 179.67752 -287.684067  L 179.845086 -290.079686  L 180.019516 -292.475305  L 180.19472 -294.870924  L 180.365124 -297.266543  L 180.526024 -299.662162  L 180.673809 -302.057781  L 180.806046 -304.4534  L 180.921457 -306.84902  L 181.019796 -309.244639  L 181.101665 -311.640258  L 181.1683 -314.035877  L 181.221351 -316.431496  L 181.373031 -316.431496  L 181.373031 -316.431496  L 181.373031 -314.035877  L 181.373031 -311.640258  L 181.373031 -309.244639  L 181.373031 -306.84902  L 181.373031 -304.4534  L 181.373031 -302.057781  L 181.373031 -299.662162  L 181.373031 -297.266543  L 181.373031 -294.870924  L 181.373031 -292.475305  L 181.373031 -290.079686  L 181.373031 -287.684067  L 181.373031 -285.288448  L 181.373031 -282.892828  L 181.373031 -280.497209  L 181.373031 -278.10159  L 181.373031 -275.705971  L 181.373031 -273.310352  L 181.373031 -270.914733  L 181.373031 -268.519114  L 181.373031 -266.123495  L 181.373031 -263.727875  L 181.373031 -261.332256  L 181.373031 -258.936637  L 181.373031 -256.541018  L 181.373031 -254.145399  L 181.373031 -251.74978  L 181.373031 -249.354161  L 181.373031 -246.958542  L 181.373031 -244.562922  L 181.373031 -242.167303  L 181.373031 -239.771684  L 181.373031 -237.376065  L 181.373031 -234.980446  L 181.373031 -232.584827  L 181.373031 -230.189208  L 181.373031 -227.793589  L 181.373031 -225.39797  L 181.373031 -223.00235  L 181.373031 -220.606731  L 181.373031 -218.211112  L 181.373031 -215.815493  L 181.373031 -213.419874  L 181.373031 -211.024255  L 181.373031 -208.628636  L 181.373031 -206.233017  L 181.373031 -203.837397  L 181.373031 -201.441778  L 181.373031 -199.046159  L 181.373031 -196.65054  L 181.373031 -194.254921  L 181.373031 -191.859302  L 181.373031 -189.463683  L 181.373031 -187.068064  L 181.373031 -184.672444  L 181.373031 -182.276825  L 181.373031 -179.881206  L 181.373031 -177.485587  L 181.373031 -175.089968  L 181.373031 -172.694349  L 181.373031 -170.29873  L 181.373031 -167.903111  L 181.373031 -165.507492  L 181.373031 -163.111872  L 181.373031 -160.716253  L 181.373031 -158.320634  L 181.373031 -155.925015  L 181.373031 -153.529396  L 181.373031 -151.133777  L 181.373031 -148.738158  L 181.373031 -146.342539  L 181.373031 -143.946919  L 181.373031 -141.5513  L 181.373031 -139.155681  L 181.373031 -136.760062  L 181.373031 -134.364443  L 181.373031 -131.968824  L 181.373031 -129.573205  L 181.373031 -127.177586  L 181.373031 -124.781966  L 181.373031 -122.386347  L 181.373031 -119.990728  L 181.373031 -117.595109  L 181.373031 -115.19949  L 181.373031 -112.803871  L 181.373031 -110.408252  L 181.373031 -108.012633  L 181.373031 -105.617014  L 181.373031 -103.221394  L 181.373031 -100.825775  L 181.373031 -98.430156  L 181.373031 -96.034537  L 181.373031 -93.638918  L 181.373031 -91.243299  L 181.373031 -88.84768  L 181.373031 -86.452061  L 181.373031 -84.056441  L 181.373031 -81.660822  L 181.373031 -79.265203  z " id="mb1a335497a" style="stroke:#393939;stroke-width:1.4;"/>
    </defs>
    <g clip-path="url(#p03235fbdcd)">
     <use style="fill:#2020df;stroke:#393939;stroke-width:1.4;" x="0" xlink:href="#mb1a335497a" y="374.173228"/>
    </g>
   </g>
   <g id="PolyCollection_6">
    <defs>
     <path d="M 181.598433 -59.612598  L 181.373031 -59.612598  L 181.373031 -61.962376  L 181.373031 -64.312154  L 181.373031 -66.661932  L 181.373031 -69.01171  L 181.373031 -71.361488  L 181.373031 -73.711265  L 181.373031 -76.061043  L 181.373031 -78.410821  L 181.373031 -80.760599  L 181.373031 -83.110377  L 181.373031 -85.460154  L 181.373031 -87.809932  L 181.373031 -90.15971  L 181.373031 -92.509488  L 181.373031 -94.859266  L 181.373031 -97.209044  L 181.373031 -99.558821  L 181.373031 -101.908599  L 181.373031 -104.258377  L 181.373031 -106.608155  L 181.373031 -108.957933  L 181.373031 -111.307711  L 181.373031 -113.657488  L 181.373031 -116.007266  L 181.373031 -118.357044  L 181.373031 -120.706822  L 181.373031 -123.0566  L 181.373031 -125.406378  L 181.373031 -127.756155  L 181.373031 -130.105933  L 181.373031 -132.455711  L 181.373031 -134.805489  L 181.373031 -137.155267  L 181.373031 -139.505044  L 181.373031 -141.854822  L 181.373031 -144.2046  L 181.373031 -146.554378  L 181.373031 -148.904156  L 181.373031 -151.253934  L 181.373031 -153.603711  L 181.373031 -155.953489  L 181.373031 -158.303267  L 181.373031 -160.653045  L 181.373031 -163.002823  L 181.373031 -165.352601  L 181.373031 -167.702378  L 181.373031 -170.052156  L 181.373031 -172.401934  L 181.373031 -174.751712  L 181.373031 -177.10149  L 181.373031 -179.451267  L 181.373031 -181.801045  L 181.373031 -184.150823  L 181.373031 -186.500601  L 181.373031 -188.850379  L 181.373031 -191.200157  L 181.373031 -193.549934  L 181.373031 -195.899712  L 181.373031 -198.24949  L 181.373031 -200.599268  L 181.373031 -202.949046  L 181.373031 -205.298824  L 181.373031 -207.648601  L 181.373031 -209.998379  L 181.373031 -212.348157  L 181.373031 -214.697935  L 181.373031 -217.047713  L 181.373031 -219.397491  L 181.373031 -221.747268  L 181.373031 -224.097046  L 181.373031 -226.446824  L 181.373031 -228.796602  L 181.373031 -231.14638  L 181.373031 -233.496157  L 181.373031 -235.845935  L 181.373031 -238.195713  L 181.373031 -240.545491  L 181.373031 -242.895269  L 181.373031 -245.245047  L 181.373031 -247.594824  L 181.373031 -249.944602  L 181.373031 -252.29438  L 181.373031 -254.644158  L 181.373031 -256.993936  L 181.373031 -259.343714  L 181.373031 -261.693491  L 181.373031 -264.043269  L 181.373031 -266.393047  L 181.373031 -268.742825  L 181.373031 -271.092603  L 181.373031 -273.44238  L 181.373031 -275.792158  L 181.373031 -278.141936  L 181.373031 -280.491714  L 181.373031 -282.841492  L 181.373031 -285.19127  L 181.373031 -287.541047  L 181.373031 -289.890825  L 181.373031 -292.240603  L 181.574253 -292.240603  L 181.574253 -292.240603  L 181.633315 -289.890825  L 181.703961 -287.541047  L 181.786633 -285.19127  L 181.881234 -282.841492  L 181.987026 -280.491714  L 182.102571 -278.141936  L 182.22573 -275.792158  L 182.35374 -273.44238  L 182.483363 -271.092603  L 182.611116 -268.742825  L 182.733553 -266.393047  L 182.847579 -264.043269  L 182.950761 -261.693491  L 183.041601 -259.343714  L 183.119739 -256.993936  L 183.186056 -254.644158  L 183.242667 -252.29438  L 183.292813 -249.944602  L 183.340661 -247.594824  L 183.391055 -245.245047  L 183.449249 -242.895269  L 183.520662 -240.545491  L 183.610684 -238.195713  L 183.724558 -235.845935  L 183.86732 -233.496157  L 184.043793 -231.14638  L 184.258599 -228.796602  L 184.516136 -226.446824  L 184.820505 -224.097046  L 185.175341 -221.747268  L 185.58356 -219.397491  L 186.047024 -217.047713  L 186.566178 -214.697935  L 187.139709 -212.348157  L 187.764301 -209.998379  L 188.434535 -207.648601  L 189.142999 -205.298824  L 189.88061 -202.949046  L 190.63713 -200.599268  L 191.401854 -198.24949  L 192.164357 -195.899712  L 192.915247 -193.549934  L 193.646799 -191.200157  L 194.353407 -188.850379  L 195.031801 -186.500601  L 195.680985 -184.150823  L 196.301933 -181.801045  L 196.897067 -179.451267  L 197.469581 -177.10149  L 198.022701 -174.751712  L 198.558933 -172.401934  L 199.079389 -170.052156  L 199.58323 -167.702378  L 200.067264 -165.352601  L 200.525736 -163.002823  L 200.950321 -160.653045  L 201.330318 -158.303267  L 201.653062 -155.953489  L 201.904534 -153.603711  L 202.070148 -151.253934  L 202.135686 -148.904156  L 202.088314 -146.554378  L 201.917613 -144.2046  L 201.616536 -141.854822  L 201.182191 -139.505044  L 200.616378 -137.155267  L 199.925799 -134.805489  L 199.121911 -132.455711  L 198.220421 -130.105933  L 197.240459 -127.756155  L 196.203491 -125.406378  L 195.132092 -123.0566  L 194.048674 -120.706822  L 192.974283 -118.357044  L 191.927578 -116.007266  L 190.92406 -113.657488  L 189.975602 -111.307711  L 189.090287 -108.957933  L 188.272554 -106.608155  L 187.523577 -104.258377  L 186.841848 -101.908599  L 186.223848 -99.558821  L 185.664766 -97.209044  L 185.159169 -94.859266  L 184.701573 -92.509488  L 184.286889 -90.15971  L 183.910703 -87.809932  L 183.569412 -85.460154  L 183.260224 -83.110377  L 182.981053 -80.760599  L 182.730344 -78.410821  L 182.506873 -76.061043  L 182.309551 -73.711265  L 182.137249 -71.361488  L 181.988686 -69.01171  L 181.862358 -66.661932  L 181.756525 -64.312154  L 181.669245 -61.962376  L 181.598433 -59.612598  z " id="m013a8ba5f3" style="stroke:#393939;stroke-width:1.4;"/>
    </defs>
    <g clip-path="url(#p03235fbdcd)">
     <use style="fill:#a7a718;stroke:#393939;stroke-width:1.4;" x="0" xlink:href="#m013a8ba5f3" y="374.173228"/>
    </g>
   </g>
   <g id="PolyCollection_7">
    <defs>
     <path d="M 239.040354 -79.688954  L 238.78351 -79.688954  L 238.682827 -81.952027  L 238.550891 -84.215099  L 238.381155 -86.478172  L 238.166723 -88.741244  L 237.900638 -91.004317  L 237.576228 -93.267389  L 237.187485 -95.530462  L 236.729446 -97.793534  L 236.19855 -100.056607  L 235.592914 -102.319679  L 234.91254 -104.582752  L 234.159395 -106.845824  L 233.337402 -109.108897  L 232.452342 -111.371969  L 231.511695 -113.635042  L 230.524459 -115.898115  L 229.500971 -118.161187  L 228.452748 -120.42426  L 227.392342 -122.687332  L 226.333203 -124.950405  L 225.2895 -127.213477  L 224.275877 -129.47655  L 223.307104 -131.739622  L 222.397624 -134.002695  L 221.560996 -136.265767  L 220.809302 -138.52884  L 220.152571 -140.791912  L 219.598302 -143.054985  L 219.151182 -145.318057  L 218.813036 -147.58113  L 218.583032 -149.844202  L 218.458121 -152.107275  L 218.43364 -154.370348  L 218.503967 -156.63342  L 218.663122 -158.896493  L 218.905198 -161.159565  L 219.224546 -163.422638  L 219.61569 -165.68571  L 220.072995 -167.948783  L 220.590179 -170.211855  L 221.159787 -172.474928  L 221.772776 -174.738  L 222.418347 -177.001073  L 223.084103 -179.264145  L 223.756577 -181.527218  L 224.422094 -183.79029  L 225.067851 -186.053363  L 225.683071 -188.316435  L 226.260048 -190.579508  L 226.794895 -192.842581  L 227.287892 -195.105653  L 227.743328 -197.368726  L 228.168872 -199.631798  L 228.574537 -201.894871  L 228.971379 -204.157943  L 229.370124 -206.421016  L 229.779892 -208.684088  L 230.207185 -210.947161  L 230.655256 -213.210233  L 231.123914 -215.473306  L 231.609735 -217.736378  L 232.106638 -219.999451  L 232.606686 -222.262523  L 233.100999 -224.525596  L 233.580653 -226.788668  L 234.037447 -229.051741  L 234.464485 -231.314814  L 234.856537 -233.577886  L 235.210184 -235.840959  L 235.523784 -238.104031  L 235.797327 -240.367104  L 236.032212 -242.630176  L 236.231008 -244.893249  L 236.397227 -247.156321  L 236.535122 -249.419394  L 236.649502 -251.682466  L 236.745554 -253.945539  L 236.828656 -256.208611  L 236.904159 -258.471684  L 236.977155 -260.734756  L 237.052215 -262.997829  L 237.133145 -265.260901  L 237.222763 -267.523974  L 237.322746 -269.787047  L 237.43356 -272.050119  L 237.554491 -274.313192  L 237.683773 -276.576264  L 237.818811 -278.839337  L 237.956455 -281.102409  L 238.093315 -283.365482  L 238.226062 -285.628554  L 238.351697 -287.891627  L 238.467757 -290.154699  L 238.572447 -292.417772  L 238.664691 -294.680844  L 238.744109 -296.943917  L 238.810941 -299.206989  L 238.865929 -301.470062  L 238.910173 -303.733134  L 239.040354 -303.733134  L 239.040354 -303.733134  L 239.040354 -301.470062  L 239.040354 -299.206989  L 239.040354 -296.943917  L 239.040354 -294.680844  L 239.040354 -292.417772  L 239.040354 -290.154699  L 239.040354 -287.891627  L 239.040354 -285.628554  L 239.040354 -283.365482  L 239.040354 -281.102409  L 239.040354 -278.839337  L 239.040354 -276.576264  L 239.040354 -274.313192  L 239.040354 -272.050119  L 239.040354 -269.787047  L 239.040354 -267.523974  L 239.040354 -265.260901  L 239.040354 -262.997829  L 239.040354 -260.734756  L 239.040354 -258.471684  L 239.040354 -256.208611  L 239.040354 -253.945539  L 239.040354 -251.682466  L 239.040354 -249.419394  L 239.040354 -247.156321  L 239.040354 -244.893249  L 239.040354 -242.630176  L 239.040354 -240.367104  L 239.040354 -238.104031  L 239.040354 -235.840959  L 239.040354 -233.577886  L 239.040354 -231.314814  L 239.040354 -229.051741  L 239.040354 -226.788668  L 239.040354 -224.525596  L 239.040354 -222.262523  L 239.040354 -219.999451  L 239.040354 -217.736378  L 239.040354 -215.473306  L 239.040354 -213.210233  L 239.040354 -210.947161  L 239.040354 -208.684088  L 239.040354 -206.421016  L 239.040354 -204.157943  L 239.040354 -201.894871  L 239.040354 -199.631798  L 239.040354 -197.368726  L 239.040354 -195.105653  L 239.040354 -192.842581  L 239.040354 -190.579508  L 239.040354 -188.316435  L 239.040354 -186.053363  L 239.040354 -183.79029  L 239.040354 -181.527218  L 239.040354 -179.264145  L 239.040354 -177.001073  L 239.040354 -174.738  L 239.040354 -172.474928  L 239.040354 -170.211855  L 239.040354 -167.948783  L 239.040354 -165.68571  L 239.040354 -163.422638  L 239.040354 -161.159565  L 239.040354 -158.896493  L 239.040354 -156.63342  L 239.040354 -154.370348  L 239.040354 -152.107275  L 239.040354 -149.844202  L 239.040354 -147.58113  L 239.040354 -145.318057  L 239.040354 -143.054985  L 239.040354 -140.791912  L 239.040354 -138.52884  L 239.040354 -136.265767  L 239.040354 -134.002695  L 239.040354 -131.739622  L 239.040354 -129.47655  L 239.040354 -127.213477  L 239.040354 -124.950405  L 239.040354 -122.687332  L 239.040354 -120.42426  L 239.040354 -118.161187  L 239.040354 -115.898115  L 239.040354 -113.635042  L 239.040354 -111.371969  L 239.040354 -109.108897  L 239.040354 -106.845824  L 239.040354 -104.582752  L 239.040354 -102.319679  L 239.040354 -100.056607  L 239.040354 -97.793534  L 239.040354 -95.530462  L 239.040354 -93.267389  L 239.040354 -91.004317  L 239.040354 -88.741244  L 239.040354 -86.478172  L 239.040354 -84.215099  L 239.040354 -81.952027  L 239.040354 -79.688954  z " id="mf5dba4e11b" style="stroke:#393939;stroke-width:1.4;"/>
    </defs>
    <g clip-path="url(#p03235fbdcd)">
     <use style="fill:#2020df;stroke:#393939;stroke-width:1.4;" x="0" xlink:href="#mf5dba4e11b" y="374.173228"/>
    </g>
   </g>
   <g id="PolyCollection_8">
    <defs>
     <path d="M 239.893335 -86.206891  L 239.040354 -86.206891  L 239.040354 -87.919984  L 239.040354 -89.633077  L 239.040354 -91.34617  L 239.040354 -93.059263  L 239.040354 -94.772356  L 239.040354 -96.485449  L 239.040354 -98.198542  L 239.040354 -99.911635  L 239.040354 -101.624728  L 239.040354 -103.337821  L 239.040354 -105.050914  L 239.040354 -106.764007  L 239.040354 -108.4771  L 239.040354 -110.190192  L 239.040354 -111.903285  L 239.040354 -113.616378  L 239.040354 -115.329471  L 239.040354 -117.042564  L 239.040354 -118.755657  L 239.040354 -120.46875  L 239.040354 -122.181843  L 239.040354 -123.894936  L 239.040354 -125.608029  L 239.040354 -127.321122  L 239.040354 -129.034215  L 239.040354 -130.747308  L 239.040354 -132.460401  L 239.040354 -134.173494  L 239.040354 -135.886586  L 239.040354 -137.599679  L 239.040354 -139.312772  L 239.040354 -141.025865  L 239.040354 -142.738958  L 239.040354 -144.452051  L 239.040354 -146.165144  L 239.040354 -147.878237  L 239.040354 -149.59133  L 239.040354 -151.304423  L 239.040354 -153.017516  L 239.040354 -154.730609  L 239.040354 -156.443702  L 239.040354 -158.156795  L 239.040354 -159.869888  L 239.040354 -161.582981  L 239.040354 -163.296073  L 239.040354 -165.009166  L 239.040354 -166.722259  L 239.040354 -168.435352  L 239.040354 -170.148445  L 239.040354 -171.861538  L 239.040354 -173.574631  L 239.040354 -175.287724  L 239.040354 -177.000817  L 239.040354 -178.71391  L 239.040354 -180.427003  L 239.040354 -182.140096  L 239.040354 -183.853189  L 239.040354 -185.566282  L 239.040354 -187.279375  L 239.040354 -188.992467  L 239.040354 -190.70556  L 239.040354 -192.418653  L 239.040354 -194.131746  L 239.040354 -195.844839  L 239.040354 -197.557932  L 239.040354 -199.271025  L 239.040354 -200.984118  L 239.040354 -202.697211  L 239.040354 -204.410304  L 239.040354 -206.123397  L 239.040354 -207.83649  L 239.040354 -209.549583  L 239.040354 -211.262676  L 239.040354 -212.975769  L 239.040354 -214.688862  L 239.040354 -216.401954  L 239.040354 -218.115047  L 239.040354 -219.82814  L 239.040354 -221.541233  L 239.040354 -223.254326  L 239.040354 -224.967419  L 239.040354 -226.680512  L 239.040354 -228.393605  L 239.040354 -230.106698  L 239.040354 -231.819791  L 239.040354 -233.532884  L 239.040354 -235.245977  L 239.040354 -236.95907  L 239.040354 -238.672163  L 239.040354 -240.385256  L 239.040354 -242.098348  L 239.040354 -243.811441  L 239.040354 -245.524534  L 239.040354 -247.237627  L 239.040354 -248.95072  L 239.040354 -250.663813  L 239.040354 -252.376906  L 239.040354 -254.089999  L 239.040354 -255.803092  L 239.637648 -255.803092  L 239.637648 -255.803092  L 239.770867 -254.089999  L 239.925398 -252.376906  L 240.102597 -250.663813  L 240.303437 -248.95072  L 240.528417 -247.237627  L 240.777469 -245.524534  L 241.049891 -243.811441  L 241.3443 -242.098348  L 241.658617 -240.385256  L 241.99009 -238.672163  L 242.335358 -236.95907  L 242.690556 -235.245977  L 243.051452 -233.532884  L 243.413631 -231.819791  L 243.772688 -230.106698  L 244.124446 -228.393605  L 244.465166 -226.680512  L 244.791749 -224.967419  L 245.101905 -223.254326  L 245.394283 -221.541233  L 245.668547 -219.82814  L 245.925399 -218.115047  L 246.166533 -216.401954  L 246.394532 -214.688862  L 246.612718 -212.975769  L 246.824949 -211.262676  L 247.035395 -209.549583  L 247.248303 -207.83649  L 247.467765 -206.123397  L 247.697512 -204.410304  L 247.940748 -202.697211  L 248.200038 -200.984118  L 248.477251 -199.271025  L 248.77357 -197.557932  L 249.089565 -195.844839  L 249.425307 -194.131746  L 249.780528 -192.418653  L 250.154802 -190.70556  L 250.547717 -188.992467  L 250.95903 -187.279375  L 251.388782 -185.566282  L 251.83735 -183.853189  L 252.305427 -182.140096  L 252.79393 -180.427003  L 253.303831 -178.71391  L 253.835923 -177.000817  L 254.390542 -175.287724  L 254.96726 -173.574631  L 255.564591 -171.861538  L 256.179726 -170.148445  L 256.808329 -168.435352  L 257.444429 -166.722259  L 258.080415 -165.009166  L 258.707148 -163.296073  L 259.314194 -161.582981  L 259.890162 -159.869888  L 260.423128 -158.156795  L 260.901129 -156.443702  L 261.312669 -154.730609  L 261.647222 -153.017516  L 261.895692 -151.304423  L 262.050784 -149.59133  L 262.107283 -147.878237  L 262.062207 -146.165144  L 261.914835 -144.452051  L 261.666623 -142.738958  L 261.321006 -141.025865  L 260.883128 -139.312772  L 260.359505 -137.599679  L 259.757677 -135.886586  L 259.085858 -134.173494  L 258.352617 -132.460401  L 257.566611 -130.747308  L 256.736379 -129.034215  L 255.870203 -127.321122  L 254.976035 -125.608029  L 254.061472 -123.894936  L 253.133775 -122.181843  L 252.199909 -120.46875  L 251.266592 -118.755657  L 250.340328 -117.042564  L 249.427419 -115.329471  L 248.53396 -113.616378  L 247.665783 -111.903285  L 246.828392 -110.190192  L 246.026863 -108.4771  L 245.265737 -106.764007  L 244.54891 -105.050914  L 243.879535 -103.337821  L 243.259945 -101.624728  L 242.691598 -99.911635  L 242.175061 -98.198542  L 241.710033 -96.485449  L 241.295388 -94.772356  L 240.929266 -93.059263  L 240.609174 -91.34617  L 240.332113 -89.633077  L 240.094706 -87.919984  L 239.893335 -86.206891  z " id="mf6ee14027b" style="stroke:#393939;stroke-width:1.4;"/>
    </defs>
    <g clip-path="url(#p03235fbdcd)">
     <use style="fill:#a7a718;stroke:#393939;stroke-width:1.4;" x="0" xlink:href="#mf6ee14027b" y="374.173228"/>
    </g>
   </g>
   <g id="patch_3">
    <path clip-path="url(#p03235fbdcd)" d="M 66.038386 291.129744  L 66.038386 291.129744  L 66.038386 291.129744  L 66.038386 291.129744  z " style="fill:#2020df;stroke:#393939;stroke-linejoin:miter;stroke-width:0.7;"/>
   </g>
   <g id="patch_4">
    <path clip-path="url(#p03235fbdcd)" d="M 66.038386 291.129744  L 66.038386 291.129744  L 66.038386 291.129744  L 66.038386 291.129744  z " style="fill:#a7a718;stroke:#393939;stroke-linejoin:miter;stroke-width:0.7;"/>
   </g>
   <g id="line2d_12">
    <path clip-path="url(#p03235fbdcd)" d="M 49.574898 237.413616  L 66.038386 237.413616  " style="fill:none;stroke:#393939;stroke-dasharray:2.94,2.94;stroke-dashoffset:0;stroke-width:1.4;"/>
   </g>
   <g id="line2d_13">
    <path clip-path="url(#p03235fbdcd)" d="M 47.61798 224.560569  L 66.038386 224.560569  " style="fill:none;stroke:#393939;stroke-dasharray:5.88,5.88;stroke-dashoffset:0;stroke-width:1.4;"/>
   </g>
   <g id="line2d_14">
    <path clip-path="url(#p03235fbdcd)" d="M 53.618164 203.442749  L 66.038386 203.442749  " style="fill:none;stroke:#393939;stroke-dasharray:2.94,2.94;stroke-dashoffset:0;stroke-width:1.4;"/>
   </g>
   <g id="line2d_15">
    <path clip-path="url(#p03235fbdcd)" d="M 66.038386 243.433274  L 88.370604 243.433274  " style="fill:none;stroke:#393939;stroke-dasharray:2.94,2.94;stroke-dashoffset:0;stroke-width:1.4;"/>
   </g>
   <g id="line2d_16">
    <path clip-path="url(#p03235fbdcd)" d="M 66.038386 237.070476  L 88.813246 237.070476  " style="fill:none;stroke:#393939;stroke-dasharray:5.88,5.88;stroke-dashoffset:0;stroke-width:1.4;"/>
   </g>
   <g id="line2d_17">
    <path clip-path="url(#p03235fbdcd)" d="M 66.038386 217.893848  L 80.871901 217.893848  " style="fill:none;stroke:#393939;stroke-dasharray:2.94,2.94;stroke-dashoffset:0;stroke-width:1.4;"/>
   </g>
   <g id="line2d_18">
    <path clip-path="url(#p03235fbdcd)" d="M 113.590829 243.148958  L 123.705709 243.148958  " style="fill:none;stroke:#393939;stroke-dasharray:2.94,2.94;stroke-dashoffset:0;stroke-width:1.4;"/>
   </g>
   <g id="line2d_19">
    <path clip-path="url(#p03235fbdcd)" d="M 113.790113 223.619385  L 123.705709 223.619385  " style="fill:none;stroke:#393939;stroke-dasharray:5.88,5.88;stroke-dashoffset:0;stroke-width:1.4;"/>
   </g>
   <g id="line2d_20">
    <path clip-path="url(#p03235fbdcd)" d="M 116.359858 188.84459  L 123.705709 188.84459  " style="fill:none;stroke:#393939;stroke-dasharray:2.94,2.94;stroke-dashoffset:0;stroke-width:1.4;"/>
   </g>
   <g id="line2d_21">
    <path clip-path="url(#p03235fbdcd)" d="M 123.705709 246.619574  L 141.439396 246.619574  " style="fill:none;stroke:#393939;stroke-dasharray:2.94,2.94;stroke-dashoffset:0;stroke-width:1.4;"/>
   </g>
   <g id="line2d_22">
    <path clip-path="url(#p03235fbdcd)" d="M 123.705709 230.815523  L 146.372974 230.815523  " style="fill:none;stroke:#393939;stroke-dasharray:5.88,5.88;stroke-dashoffset:0;stroke-width:1.4;"/>
   </g>
   <g id="line2d_23">
    <path clip-path="url(#p03235fbdcd)" d="M 123.705709 227.325298  L 145.241302 227.325298  " style="fill:none;stroke:#393939;stroke-dasharray:2.94,2.94;stroke-dashoffset:0;stroke-width:1.4;"/>
   </g>
   <g id="line2d_24">
    <path clip-path="url(#p03235fbdcd)" d="M 160.581243 236.599884  L 181.373031 236.599884  " style="fill:none;stroke:#393939;stroke-dasharray:2.94,2.94;stroke-dashoffset:0;stroke-width:1.4;"/>
   </g>
   <g id="line2d_25">
    <path clip-path="url(#p03235fbdcd)" d="M 158.877971 219.599744  L 181.373031 219.599744  " style="fill:none;stroke:#393939;stroke-dasharray:5.88,5.88;stroke-dashoffset:0;stroke-width:1.4;"/>
   </g>
   <g id="line2d_26">
    <path clip-path="url(#p03235fbdcd)" d="M 167.205021 196.364259  L 181.373031 196.364259  " style="fill:none;stroke:#393939;stroke-dasharray:2.94,2.94;stroke-dashoffset:0;stroke-width:1.4;"/>
   </g>
   <g id="line2d_27">
    <path clip-path="url(#p03235fbdcd)" d="M 181.373031 236.031252  L 200.423945 236.031252  " style="fill:none;stroke:#393939;stroke-dasharray:2.94,2.94;stroke-dashoffset:0;stroke-width:1.4;"/>
   </g>
   <g id="line2d_28">
    <path clip-path="url(#p03235fbdcd)" d="M 181.373031 219.129152  L 201.450262 219.129152  " style="fill:none;stroke:#393939;stroke-dasharray:5.88,5.88;stroke-dashoffset:0;stroke-width:1.4;"/>
   </g>
   <g id="line2d_29">
    <path clip-path="url(#p03235fbdcd)" d="M 181.373031 190.883822  L 195.537905 190.883822  " style="fill:none;stroke:#393939;stroke-dasharray:2.94,2.94;stroke-dashoffset:0;stroke-width:1.4;"/>
   </g>
   <g id="line2d_30">
    <path clip-path="url(#p03235fbdcd)" d="M 219.792723 231.776315  L 239.040354 231.776315  " style="fill:none;stroke:#393939;stroke-dasharray:2.94,2.94;stroke-dashoffset:0;stroke-width:1.4;"/>
   </g>
   <g id="line2d_31">
    <path clip-path="url(#p03235fbdcd)" d="M 219.422704 209.854566  L 239.040354 209.854566  " style="fill:none;stroke:#393939;stroke-dasharray:5.88,5.88;stroke-dashoffset:0;stroke-width:1.4;"/>
   </g>
   <g id="line2d_32">
    <path clip-path="url(#p03235fbdcd)" d="M 225.207576 187.011241  L 239.040354 187.011241  " style="fill:none;stroke:#393939;stroke-dasharray:2.94,2.94;stroke-dashoffset:0;stroke-width:1.4;"/>
   </g>
   <g id="line2d_33">
    <path clip-path="url(#p03235fbdcd)" d="M 239.040354 231.619451  L 261.44036 231.619451  " style="fill:none;stroke:#393939;stroke-dasharray:2.94,2.94;stroke-dashoffset:0;stroke-width:1.4;"/>
   </g>
   <g id="line2d_34">
    <path clip-path="url(#p03235fbdcd)" d="M 239.040354 222.854673  L 261.667139 222.854673  " style="fill:none;stroke:#393939;stroke-dasharray:5.88,5.88;stroke-dashoffset:0;stroke-width:1.4;"/>
   </g>
   <g id="line2d_35">
    <path clip-path="url(#p03235fbdcd)" d="M 239.040354 193.491687  L 252.656395 193.491687  " style="fill:none;stroke:#393939;stroke-dasharray:2.94,2.94;stroke-dashoffset:0;stroke-width:1.4;"/>
   </g>
   <g id="patch_5">
    <path d="M 37.204724 327.401575  L 267.874016 327.401575  " style="fill:none;stroke:#262626;stroke-linecap:square;stroke-linejoin:miter;stroke-width:1.25;"/>
   </g>
   <g id="legend_1">
    <g id="text_14">
     <text style="fill:#262626;font-family:Arial;font-size:14.96px;font-style:normal;font-weight:400;text-anchor:start;" transform="rotate(-0, 192.760684, 70.008875)" x="192.760684" y="70.008875">sex</text>
    </g>
    <g id="patch_6">
     <path d="M 155.326516 92.434675  L 187.326516 92.434675  L 187.326516 81.234675  L 155.326516 81.234675  z " style="fill:#2020df;stroke:#393939;stroke-linejoin:miter;stroke-width:0.7;"/>
    </g>
    <g id="text_15">
     <text style="fill:#262626;font-family:Arial;font-size:16px;font-style:normal;font-weight:400;text-anchor:start;" transform="rotate(-0, 200.126516, 92.434675)" x="200.126516" y="92.434675">Male</text>
    </g>
    <g id="patch_7">
     <path d="M 155.326516 115.067175  L 187.326516 115.067175  L 187.326516 103.867175  L 155.326516 103.867175  z " style="fill:#a7a718;stroke:#393939;stroke-linejoin:miter;stroke-width:0.7;"/>
    </g>
    <g id="text_16">
     <text style="fill:#262626;font-family:Arial;font-size:16px;font-style:normal;font-weight:400;text-anchor:start;" transform="rotate(-0, 200.126516, 115.067175)" x="200.126516" y="115.067175">Female</text>
    </g>
   </g>
  </g>
 </g>
 <defs>
  <clipPath id="p03235fbdcd">
   <rect height="282.500787" width="230.669291" x="37.204724" y="44.900787"/>
  </clipPath>
 </defs>
</g>
  </g>
  <g>
    <text fill="black" font-family="Verdana" font-size="12" font-weight="bold" letter-spacing="0" text-anchor="start" x="15" y="20">C</text>
  </g>
</svg>
